<?xml version="1.0" standalone="no"?>
<!DOCTYPE svg PUBLIC "-//W3C//DTD SVG 20010904//EN"
 "http://www.w3.org/TR/2001/REC-SVG-20010904/DTD/svg10.dtd">
<svg version="1.0" xmlns="http://www.w3.org/2000/svg"
 width="512.000000pt" height="512.000000pt" viewBox="0 0 512.000000 512.000000"
 preserveAspectRatio="xMidYMid meet">
<metadata>
Created by potrace 1.14, written by Peter Selinger 2001-2017
</metadata>
<g transform="translate(0.000000,512.000000) scale(0.100000,-0.100000)"
fill="#000000" stroke="none">
<path d="M0 2560 l0 -2560 2560 0 2560 0 0 2560 0 2560 -2560 0 -2560 0 0
-2560z m2640 1525 c19 -20 25 -40 29 -105 4 -43 11 -84 17 -90 7 -7 42 -15 80
-20 38 -5 89 -16 113 -24 68 -25 90 -20 161 34 101 77 160 77 196 1 21 -43 23
-138 5 -196 -7 -22 -35 -88 -62 -146 -27 -58 -47 -112 -44 -120 3 -8 20 -23
38 -34 18 -11 40 -37 50 -58 18 -36 18 -41 2 -107 -15 -60 -15 -80 -5 -134 14
-76 5 -101 -45 -122 -27 -11 -43 -31 -78 -96 -24 -46 -92 -159 -152 -253 -59
-93 -121 -199 -138 -235 -35 -79 -53 -100 -83 -100 -88 0 -64 126 60 319 243
375 241 369 233 527 -5 104 -9 130 -31 172 -22 43 -25 61 -24 143 2 103 -18
173 -52 184 -11 3 -43 -1 -71 -9 -106 -32 -192 -10 -238 61 -14 21 -32 44 -40
51 -29 24 -199 7 -276 -27 -22 -10 -66 -42 -98 -70 -61 -54 -80 -58 -118 -25
-8 8 -25 14 -37 14 -25 0 -244 -109 -371 -186 -125 -75 -146 -80 -178 -48 -26
27 -25 55 6 86 45 47 388 229 561 298 137 54 164 70 305 186 66 53 138 110
159 126 50 36 94 37 126 3z"/>
<path d="M2496 3901 c-11 -12 -14 -21 -7 -25 14 -9 53 13 48 27 -6 19 -23 18
-41 -2z"/>
<path d="M3078 3749 c-31 -18 -41 -47 -28 -80 7 -16 16 -29 21 -29 15 0 40 46
46 84 6 38 -5 45 -39 25z"/>
</g>
</svg>
